<svg viewBox="0 0 488.03 124.22" xmlns="http://www.w3.org/2000/svg"><path d="m184.23 76a18.29 18.29 0 0 1 -31.23-13 18.29 18.29 0 1 1 36.57 0 17.66 17.66 0 0 1 -5.34 13zm-20.91-13a7.93 7.93 0 0 0 2.28 5.86 8.15 8.15 0 0 0 11.31 0 8.68 8.68 0 0 0 0-11.73 8.15 8.15 0 0 0 -11.31 0 7.93 7.93 0 0 0 -2.28 5.87z" fill="#070d23"/><path d="m217.69 64.58v-18.83h10.31v34.5h-10.31v-3.25q-3.1 4.22-9.87 4.21a12.41 12.41 0 0 1 -9.24-3.79q-3.66-3.87-3.66-10.49v-21.18h10.35v19.66a6.21 6.21 0 0 0 1.66 4.59 5.84 5.84 0 0 0 4.34 1.66 6.12 6.12 0 0 0 4.73-1.8 7.49 7.49 0 0 0 1.69-5.28z" fill="#070d23"/><path d="m255.85 45.75v9.93h-7.11v12.21a2.45 2.45 0 0 0 1.59 2.59 15.5 15.5 0 0 0 5.52.38v9.39q-9.79 1-13.66-1.87t-3.8-10.49v-12.21h-5.52v-9.93h5.52v-6.56l10.35-3.11v9.67z" fill="#070d23"/><path d="m271.16 55.82c0 .6.49 1.12 1.45 1.55a31.72 31.72 0 0 0 4.56 1.48q11 2.43 11 11a9.7 9.7 0 0 1 -4.17 8.53 17.86 17.86 0 0 1 -10.21 2.83q-10.9 0-14.79-8.21l9-5.11a5.63 5.63 0 0 0 5.79 4.11c2.48 0 3.72-.72 3.72-2.14q0-1.53-6-3a33.5 33.5 0 0 1 -3.8-1.28 19.91 19.91 0 0 1 -3.41-1.86 8 8 0 0 1 -2.8-3.14 9.79 9.79 0 0 1 -1-4.41 10 10 0 0 1 3.86-8.35 15.4 15.4 0 0 1 9.66-3q9 0 13.46 7.38l-8.83 4.76a5.11 5.11 0 0 0 -4.63-3c-1.89-.07-2.86.57-2.86 1.86z" fill="#070d23"/><path d="m322.5 76a18.29 18.29 0 0 1 -31.26-13 18.29 18.29 0 1 1 36.57 0 17.66 17.66 0 0 1 -5.31 13zm-20.91-13a7.93 7.93 0 0 0 2.28 5.86 8.17 8.17 0 0 0 11.32 0 8.71 8.71 0 0 0 0-11.73 8.17 8.17 0 0 0 -11.32 0 7.93 7.93 0 0 0 -2.28 5.87z" fill="#070d23"/><path d="m356 64.58v-18.83h10.35v34.5h-10.35v-3.25q-3.11 4.22-9.87 4.21a12.45 12.45 0 0 1 -9.25-3.79q-3.66-3.87-3.66-10.49v-21.18h10.36v19.66a6.25 6.25 0 0 0 1.62 4.59 5.86 5.86 0 0 0 4.35 1.66 6.13 6.13 0 0 0 4.73-1.83 7.54 7.54 0 0 0 1.72-5.25z" fill="#070d23"/><path d="m384.25 45.75v6.14a8.7 8.7 0 0 1 3.83-5 12 12 0 0 1 6.53-1.79v11.69a10.24 10.24 0 0 0 -7.11 1.31q-3.25 1.86-3.25 6.55v15.6h-10.35v-34.5z" fill="#070d23"/><path d="m415 81.21a17.81 17.81 0 0 1 -18.33-18.21 17.81 17.81 0 0 1 18.33-18.22 18 18 0 0 1 9.11 2.41 17 17 0 0 1 6.48 6.42l-9 5.24q-1.94-3.85-6.77-3.85a7.54 7.54 0 0 0 -5.59 2.24 8.62 8.62 0 0 0 0 11.53 7.54 7.54 0 0 0 5.59 2.23q4.9 0 6.69-3.86l9 5.17a16.57 16.57 0 0 1 -6.45 6.52 18.09 18.09 0 0 1 -9.06 2.38z" fill="#070d23"/><path d="m444.22 40.91a5.93 5.93 0 0 1 -4.35 1.8 6.13 6.13 0 0 1 -6.21-6.21 6 6 0 0 1 1.79-4.35 6 6 0 0 1 4.42-1.86 6.36 6.36 0 0 1 6.21 6.21 6 6 0 0 1 -1.86 4.41z" fill="#ff333d"/><path d="m434.69 45.75h10.35v34.5h-10.35z" fill="#070d23"/><path d="m477.68 49v-3.25h10.32v34.5h-10.32v-3.25q-3.58 4.22-10.28 4.21a15.29 15.29 0 0 1 -11.66-5.21 18.43 18.43 0 0 1 -4.83-13 18.35 18.35 0 0 1 4.83-12.91 15.33 15.33 0 0 1 11.66-5.31q6.69 0 10.28 4.22zm-16.42 14a8.34 8.34 0 0 0 2.27 6.14 8.89 8.89 0 0 0 11.87 0 8.3 8.3 0 0 0 2.28-6.14 8.31 8.31 0 0 0 -2.28-6.15 8.89 8.89 0 0 0 -11.87 0 8.34 8.34 0 0 0 -2.27 6.15z" fill="#070d23"/><path d="m114.31 28.25-5.5 3.69a2.43 2.43 0 0 0 -1.26 1.91 2 2 0 0 0 1.13 1.56c.39.23 3.86 2.33 5 4.06a7.38 7.38 0 0 1 1 5.88 8.4 8.4 0 0 1 -3.55 5.06 8 8 0 0 1 -11.09-1.8c-1.16-1.73-1.79-5.73-1.85-6.18a2 2 0 0 0 -1-1.64 2.41 2.41 0 0 0 -2.25.46l-3.44 2.31a34.7 34.7 0 0 1 -57.57 38.67l-.58-.81a34.88 34.88 0 0 1 -2.73-4.91 34.7 34.7 0 0 1 42.79-47.2l1.46-3.89a4.34 4.34 0 0 1 3-2.93 3.93 3.93 0 0 1 3.62 1.31c.77.8 3.07 3 4.37 3.47a6 6 0 0 0 7.49-3.82 6.41 6.41 0 0 0 0-4.72 5.39 5.39 0 0 0 -3.11-3.08c-1.29-.48-4.45-.35-5.56-.26a3.88 3.88 0 0 1 -3.6-1.39 4.34 4.34 0 0 1 -.36-4.2l2.28-6.19a62.15 62.15 0 0 0 -43.45 116.39l.86.25a64.24 64.24 0 0 0 9.77 2.77c1.08.21 2.16.39 3.22.54a62.15 62.15 0 0 0 60.91-95.34z" fill="#ff8f1f"/><circle cx="62.15" cy="62.1" fill="#ff333d" r="13.9"/><g fill="#a5a5a8"><path d="m206.63 102.27a1 1 0 0 1 .54.73 1.18 1.18 0 0 1 -.25.92.89.89 0 0 1 -.62.36 1.27 1.27 0 0 1 -.75-.15 8.7 8.7 0 0 0 -1.92-.85 8 8 0 0 0 -5.08.23 6.68 6.68 0 0 0 -2.29 1.55 7.31 7.31 0 0 0 -1.51 2.39 8.25 8.25 0 0 0 -.54 3 8.58 8.58 0 0 0 .56 3.18 7 7 0 0 0 1.56 2.39 6.51 6.51 0 0 0 2.29 1.5 7.76 7.76 0 0 0 2.85.51 7.88 7.88 0 0 0 2.13-.29 7.4 7.4 0 0 0 1.92-.87 1.3 1.3 0 0 1 .77-.13.88.88 0 0 1 .63.38 1 1 0 0 1 .26.9 1 1 0 0 1 -.53.72 8.81 8.81 0 0 1 -1.54.72 11.56 11.56 0 0 1 -1.79.52 9.76 9.76 0 0 1 -1.85.19 10 10 0 0 1 -3.67-.68 9.44 9.44 0 0 1 -3.07-1.93 8.77 8.77 0 0 1 -2.09-3 10.46 10.46 0 0 1 -.76-4.06 10.11 10.11 0 0 1 .73-3.85 9.2 9.2 0 0 1 2-3.06 9 9 0 0 1 3-2 10 10 0 0 1 3.79-.71 10.44 10.44 0 0 1 2.73.36 9.16 9.16 0 0 1 2.5 1.03z"/><path d="m220.5 106a1 1 0 0 1 .79.31 1.14 1.14 0 0 1 .29.8v7.34a5.65 5.65 0 0 1 -1.52 4.22 6.74 6.74 0 0 1 -8.48 0 5.62 5.62 0 0 1 -1.53-4.22v-7.34a1.08 1.08 0 0 1 .32-.8 1 1 0 0 1 .76-.31 1 1 0 0 1 .79.31 1.1 1.1 0 0 1 .3.8v7.34a3.77 3.77 0 0 0 .94 2.78 4.23 4.23 0 0 0 5.32 0 3.77 3.77 0 0 0 .94-2.78v-7.34a1.1 1.1 0 0 1 .3-.8 1 1 0 0 1 .78-.31z"/><path d="m224.77 117.71a1.31 1.31 0 0 1 -.2-.74.88.88 0 0 1 .44-.69 1.08 1.08 0 0 1 .66-.16 1 1 0 0 1 .67.35 5.93 5.93 0 0 0 1.72 1.42 5 5 0 0 0 3.66.31 2.5 2.5 0 0 0 1.11-.66 1.76 1.76 0 0 0 .44-1.26 1.62 1.62 0 0 0 -.45-1.2 3.49 3.49 0 0 0 -1.21-.73 15.45 15.45 0 0 0 -1.58-.5c-.59-.16-1.17-.34-1.75-.54a6.23 6.23 0 0 1 -1.55-.77 3.61 3.61 0 0 1 -1.11-1.19 3.4 3.4 0 0 1 -.42-1.76 3.44 3.44 0 0 1 .66-2.11 4.38 4.38 0 0 1 1.77-1.38 6.13 6.13 0 0 1 2.46-.48 8.11 8.11 0 0 1 1.58.17 6.1 6.1 0 0 1 1.6.6 4.43 4.43 0 0 1 1.38 1.14 1.12 1.12 0 0 1 .27.68.87.87 0 0 1 -.35.73 1.05 1.05 0 0 1 -.66.2.85.85 0 0 1 -.61-.26 3.89 3.89 0 0 0 -1.44-1.06 4.64 4.64 0 0 0 -1.88-.37 3.84 3.84 0 0 0 -1.24.21 2.39 2.39 0 0 0 -1 .63 1.66 1.66 0 0 0 -.42 1.21 1.68 1.68 0 0 0 .49 1.19 3.26 3.26 0 0 0 1.24.75c.52.18 1.1.37 1.73.55a16.87 16.87 0 0 1 1.66.5 5.76 5.76 0 0 1 1.44.74 3.35 3.35 0 0 1 1 1.18 3.8 3.8 0 0 1 .38 1.79 3.41 3.41 0 0 1 -.71 2.15 4.31 4.31 0 0 1 -1.85 1.37 6.29 6.29 0 0 1 -2.47.48 8.2 8.2 0 0 1 -2.94-.56 5.67 5.67 0 0 1 -2.52-1.93z"/><path d="m237.84 106.05h6.34a1 1 0 0 1 .72.3 1 1 0 0 1 .28.73.93.93 0 0 1 -.28.68 1 1 0 0 1 -.72.29h-6.34a1 1 0 0 1 -.72-.3 1 1 0 0 1 0-1.42 1 1 0 0 1 .72-.28zm2.83-3.67a1 1 0 0 1 .76.32 1.12 1.12 0 0 1 .3.78v13a2.07 2.07 0 0 0 .18 1 1 1 0 0 0 .5.44 1.52 1.52 0 0 0 .61.13 1 1 0 0 0 .47-.1 1.21 1.21 0 0 1 .48-.09.67.67 0 0 1 .5.25 1 1 0 0 1 .23.67 1 1 0 0 1 -.57.82 2.49 2.49 0 0 1 -1.27.34 8.91 8.91 0 0 1 -.93-.06 2.72 2.72 0 0 1 -1.1-.35 2.33 2.33 0 0 1 -.9-1 4.25 4.25 0 0 1 -.36-1.93v-13.12a1.06 1.06 0 0 1 .32-.78 1.1 1.1 0 0 1 .78-.32z"/><path d="m261.3 112.91a7.5 7.5 0 0 1 -.93 3.75 6.94 6.94 0 0 1 -2.51 2.59 6.81 6.81 0 0 1 -3.55 1 6.86 6.86 0 0 1 -6.09-3.54 8 8 0 0 1 0-7.51 7 7 0 0 1 2.52-2.59 6.88 6.88 0 0 1 3.57-.94 6.8 6.8 0 0 1 3.55.94 7 7 0 0 1 2.51 2.59 7.52 7.52 0 0 1 .93 3.71zm-2.19 0a5.69 5.69 0 0 0 -.63-2.74 4.87 4.87 0 0 0 -1.73-1.87 4.47 4.47 0 0 0 -2.44-.68 4.52 4.52 0 0 0 -2.47.68 5 5 0 0 0 -1.74 1.87 6.06 6.06 0 0 0 0 5.46 4.93 4.93 0 0 0 1.74 1.88 4.53 4.53 0 0 0 2.47.69 4.47 4.47 0 0 0 2.44-.69 4.83 4.83 0 0 0 1.73-1.88 5.72 5.72 0 0 0 .63-2.72z"/><path d="m271.21 105.75a4.58 4.58 0 0 1 3 .93 4.49 4.49 0 0 1 1.53 2.64h-.41l.19-.49a4.39 4.39 0 0 1 1.11-1.46 6.84 6.84 0 0 1 1.81-1.16 5.23 5.23 0 0 1 2.13-.46 4.62 4.62 0 0 1 2.81.77 4.28 4.28 0 0 1 1.47 2 8.7 8.7 0 0 1 .45 2.88v7.37a1.1 1.1 0 0 1 -.31.78 1.06 1.06 0 0 1 -.8.33 1 1 0 0 1 -.77-.33 1.06 1.06 0 0 1 -.31-.78v-7.27a5.56 5.56 0 0 0 -.3-1.87 2.82 2.82 0 0 0 -1-1.37 3.12 3.12 0 0 0 -1.89-.51 4.08 4.08 0 0 0 -3.45 1.88 3.4 3.4 0 0 0 -.54 1.87v7.32a1.09 1.09 0 0 1 -.3.78 1.1 1.1 0 0 1 -1.57 0 1.12 1.12 0 0 1 -.29-.78v-7.4a5.36 5.36 0 0 0 -.3-1.83 2.77 2.77 0 0 0 -1-1.34 3 3 0 0 0 -1.84-.5 4 4 0 0 0 -3.4 1.84 3.29 3.29 0 0 0 -.54 1.83v7.4a1.06 1.06 0 0 1 -.31.78 1.06 1.06 0 0 1 -1.54 0 1.06 1.06 0 0 1 -.31-.78v-11.74a1.07 1.07 0 0 1 .31-.8 1 1 0 0 1 .77-.31 1 1 0 0 1 .78.31 1.1 1.1 0 0 1 .3.8v2l-.59.65a3.6 3.6 0 0 1 .55-1.41 5.77 5.77 0 0 1 1.15-1.29 5.93 5.93 0 0 1 1.56-1 4.94 4.94 0 0 1 1.85-.28z"/><path d="m295.72 120.2a7.61 7.61 0 0 1 -3.8-.92 6.36 6.36 0 0 1 -2.51-2.53 7.44 7.44 0 0 1 -.89-3.71 8.11 8.11 0 0 1 .93-4 6.68 6.68 0 0 1 2.43-2.54 6.2 6.2 0 0 1 3.17-.87 6.36 6.36 0 0 1 2.4.46 5.85 5.85 0 0 1 2.06 1.35 6.91 6.91 0 0 1 1.43 2.1 7.07 7.07 0 0 1 .56 2.76.93.93 0 0 1 -.32.71 1.13 1.13 0 0 1 -.76.29h-10.66l-.49-1.87h10.37l-.43.38v-.59a3.38 3.38 0 0 0 -.72-1.91 4.29 4.29 0 0 0 -1.54-1.23 4.44 4.44 0 0 0 -1.9-.43 4.54 4.54 0 0 0 -1.61.3 4 4 0 0 0 -1.43.92 4.5 4.5 0 0 0 -1 1.62 6.34 6.34 0 0 0 -.4 2.4 5.78 5.78 0 0 0 .64 2.75 4.71 4.71 0 0 0 1.77 1.88 5 5 0 0 0 2.64.69 5.12 5.12 0 0 0 1.65-.24 4.81 4.81 0 0 0 1.2-.61 5.31 5.31 0 0 0 .85-.74 1.2 1.2 0 0 1 .71-.25.87.87 0 0 1 .64.27.89.89 0 0 1 .27.65 1.09 1.09 0 0 1 -.43.84 7 7 0 0 1 -2.06 1.46 6.29 6.29 0 0 1 -2.77.61z"/><path d="m305.82 119.93a1 1 0 0 1 -.77-.33 1.1 1.1 0 0 1 -.31-.78v-11.74a1.11 1.11 0 0 1 .31-.8 1 1 0 0 1 .77-.31 1 1 0 0 1 .79.31 1.14 1.14 0 0 1 .29.8v3.53l-.32-.57a6 6 0 0 1 .58-1.63 5.52 5.52 0 0 1 1.07-1.43 4.83 4.83 0 0 1 1.48-1 4.61 4.61 0 0 1 1.84-.36 2.16 2.16 0 0 1 1.09.28.89.89 0 0 1 .5.8 1.11 1.11 0 0 1 -.3.85.94.94 0 0 1 -.67.28 1.48 1.48 0 0 1 -.68-.16 1.74 1.74 0 0 0 -.81-.16 2.65 2.65 0 0 0 -1.33.37 4.73 4.73 0 0 0 -1.22 1 5.73 5.73 0 0 0 -.89 1.52 4.75 4.75 0 0 0 -.34 1.82v6.56a1.06 1.06 0 0 1 -.31.78 1 1 0 0 1 -.77.37z"/><path d="m340.41 110.48a10.65 10.65 0 0 1 -.68 3.84 9.52 9.52 0 0 1 -1.9 3.1 8.7 8.7 0 0 1 -2.89 2 9.46 9.46 0 0 1 -7.29 0 8.81 8.81 0 0 1 -2.89-2 9.33 9.33 0 0 1 -1.89-3.1 11.53 11.53 0 0 1 0-7.69 9.19 9.19 0 0 1 1.89-3.09 8.66 8.66 0 0 1 2.89-2.05 9.46 9.46 0 0 1 7.29 0 8.56 8.56 0 0 1 2.89 2.05 9.37 9.37 0 0 1 1.9 3.09 10.71 10.71 0 0 1 .68 3.85zm-2.35 0a8.61 8.61 0 0 0 -.86-3.9 6.72 6.72 0 0 0 -2.39-2.69 6.41 6.41 0 0 0 -3.53-1 6.32 6.32 0 0 0 -3.49 1 6.65 6.65 0 0 0 -2.39 2.67 9.22 9.22 0 0 0 0 7.82 6.64 6.64 0 0 0 2.39 2.69 6.4 6.4 0 0 0 3.49 1 6.49 6.49 0 0 0 3.53-1 6.79 6.79 0 0 0 2.39-2.69 8.64 8.64 0 0 0 .86-3.9z"/><path d="m350.48 105.62a6 6 0 0 1 3.29.93 6.48 6.48 0 0 1 2.31 2.55 7.92 7.92 0 0 1 .85 3.75 8 8 0 0 1 -.85 3.78 6.76 6.76 0 0 1 -2.29 2.61 5.94 5.94 0 0 1 -5.13.65 6.2 6.2 0 0 1 -2.8-2 4.1 4.1 0 0 1 -.7-1.27l.6-.35v2.73a1.13 1.13 0 0 1 -.3.79 1 1 0 0 1 -.79.32 1 1 0 0 1 -.76-.31 1.08 1.08 0 0 1 -.32-.8v-17.9a1.1 1.1 0 0 1 .32-.78 1 1 0 0 1 .76-.32 1 1 0 0 1 .79.32 1.12 1.12 0 0 1 .3.78v8.32l-.41-.22a4.25 4.25 0 0 1 .66-1.31 5.42 5.42 0 0 1 1.16-1.13 6.07 6.07 0 0 1 1.54-.8 5.56 5.56 0 0 1 1.77-.34zm-.24 2a4.21 4.21 0 0 0 -2.39.68 4.54 4.54 0 0 0 -1.62 1.87 5.9 5.9 0 0 0 -.58 2.68 6.21 6.21 0 0 0 .58 2.73 4.62 4.62 0 0 0 1.62 1.92 4.22 4.22 0 0 0 2.39.7 4.14 4.14 0 0 0 2.37-.7 4.77 4.77 0 0 0 1.62-1.92 6.08 6.08 0 0 0 .6-2.73 5.78 5.78 0 0 0 -.6-2.68 4.69 4.69 0 0 0 -1.62-1.87 4.12 4.12 0 0 0 -2.37-.68z"/><path d="m359.36 117.71a1.31 1.31 0 0 1 -.2-.74.89.89 0 0 1 .45-.69 1.05 1.05 0 0 1 .66-.16 1 1 0 0 1 .66.35 5.84 5.84 0 0 0 1.73 1.42 4.91 4.91 0 0 0 2.37.52 5 5 0 0 0 1.29-.21 2.41 2.41 0 0 0 1.1-.66 1.77 1.77 0 0 0 .45-1.26 1.59 1.59 0 0 0 -.46-1.2 3.53 3.53 0 0 0 -1.2-.73 16.28 16.28 0 0 0 -1.58-.5c-.6-.16-1.18-.34-1.76-.54a6.41 6.41 0 0 1 -1.55-.77 3.61 3.61 0 0 1 -1.11-1.19 3.4 3.4 0 0 1 -.41-1.76 3.44 3.44 0 0 1 .66-2.11 4.42 4.42 0 0 1 1.76-1.38 6.13 6.13 0 0 1 2.46-.48 8 8 0 0 1 1.58.17 6.16 6.16 0 0 1 1.61.6 4.67 4.67 0 0 1 1.38 1.14 1.06 1.06 0 0 1 .26.68.84.84 0 0 1 -.35.73 1 1 0 0 1 -.66.2.83.83 0 0 1 -.6-.26 3.92 3.92 0 0 0 -1.45-1.06 4.61 4.61 0 0 0 -1.88-.37 3.89 3.89 0 0 0 -1.24.21 2.45 2.45 0 0 0 -1 .63 1.66 1.66 0 0 0 -.42 1.21 1.68 1.68 0 0 0 .49 1.19 3.34 3.34 0 0 0 1.24.75c.52.18 1.1.37 1.73.55a16.09 16.09 0 0 1 1.66.5 5.76 5.76 0 0 1 1.44.74 3.26 3.26 0 0 1 1 1.18 3.8 3.8 0 0 1 .38 1.79 3.46 3.46 0 0 1 -.7 2.15 4.43 4.43 0 0 1 -1.85 1.37 6.36 6.36 0 0 1 -2.47.48 8.29 8.29 0 0 1 -2.95-.56 5.73 5.73 0 0 1 -2.52-1.93z"/><path d="m379.42 120.2a7.61 7.61 0 0 1 -3.8-.92 6.36 6.36 0 0 1 -2.51-2.53 7.44 7.44 0 0 1 -.89-3.71 8.11 8.11 0 0 1 .93-4 6.68 6.68 0 0 1 2.43-2.54 6.2 6.2 0 0 1 3.17-.87 6.36 6.36 0 0 1 2.4.46 5.72 5.72 0 0 1 2.05 1.35 6.74 6.74 0 0 1 1.43 2.1 6.9 6.9 0 0 1 .57 2.76.93.93 0 0 1 -.32.71 1.13 1.13 0 0 1 -.76.29h-10.66l-.49-1.87h10.37l-.43.38v-.59a3.45 3.45 0 0 0 -.72-1.91 4.29 4.29 0 0 0 -1.54-1.23 4.44 4.44 0 0 0 -1.9-.43 4.54 4.54 0 0 0 -1.61.3 4 4 0 0 0 -1.43.92 4.5 4.5 0 0 0 -1 1.62 6.34 6.34 0 0 0 -.4 2.4 5.78 5.78 0 0 0 .64 2.75 4.71 4.71 0 0 0 1.77 1.88 5 5 0 0 0 2.64.69 5.12 5.12 0 0 0 1.64-.21 4.81 4.81 0 0 0 1.2-.61 5.79 5.79 0 0 0 .85-.74 1.2 1.2 0 0 1 .7-.25.88.88 0 0 1 .65.27.89.89 0 0 1 .27.65 1.09 1.09 0 0 1 -.43.84 6.93 6.93 0 0 1 -2.07 1.46 6.22 6.22 0 0 1 -2.75.58z"/><path d="m387.63 117.71a1.31 1.31 0 0 1 -.2-.74.89.89 0 0 1 .45-.69 1.05 1.05 0 0 1 .66-.16 1 1 0 0 1 .66.35 5.84 5.84 0 0 0 1.73 1.42 4.91 4.91 0 0 0 2.37.52 5 5 0 0 0 1.29-.21 2.46 2.46 0 0 0 1.1-.66 1.77 1.77 0 0 0 .45-1.26 1.63 1.63 0 0 0 -.46-1.2 3.53 3.53 0 0 0 -1.2-.73 16.28 16.28 0 0 0 -1.58-.5c-.6-.16-1.18-.34-1.76-.54a6.41 6.41 0 0 1 -1.55-.77 3.61 3.61 0 0 1 -1.11-1.19 3.76 3.76 0 0 1 .25-3.87 4.42 4.42 0 0 1 1.76-1.38 6.13 6.13 0 0 1 2.46-.48 8 8 0 0 1 1.58.17 6.16 6.16 0 0 1 1.61.6 4.51 4.51 0 0 1 1.37 1.14 1 1 0 0 1 .27.68.87.87 0 0 1 -.35.73 1.05 1.05 0 0 1 -.66.2.87.87 0 0 1 -.61-.26 3.81 3.81 0 0 0 -1.44-1.06 4.61 4.61 0 0 0 -1.88-.37 3.84 3.84 0 0 0 -1.24.21 2.45 2.45 0 0 0 -1 .63 1.66 1.66 0 0 0 -.42 1.21 1.68 1.68 0 0 0 .49 1.19 3.26 3.26 0 0 0 1.24.75c.52.18 1.1.37 1.73.55a16.87 16.87 0 0 1 1.66.5 5.76 5.76 0 0 1 1.44.74 3.26 3.26 0 0 1 1 1.18 3.8 3.8 0 0 1 .38 1.79 3.46 3.46 0 0 1 -.7 2.15 4.43 4.43 0 0 1 -1.85 1.37 6.36 6.36 0 0 1 -2.47.48 8.29 8.29 0 0 1 -2.95-.56 5.67 5.67 0 0 1 -2.52-1.93z"/><path d="m400.43 117.71a1.31 1.31 0 0 1 -.2-.74.88.88 0 0 1 .44-.69 1.08 1.08 0 0 1 .66-.16 1 1 0 0 1 .67.35 5.93 5.93 0 0 0 1.72 1.42 5 5 0 0 0 3.66.31 2.5 2.5 0 0 0 1.11-.66 1.76 1.76 0 0 0 .44-1.26 1.62 1.62 0 0 0 -.45-1.2 3.49 3.49 0 0 0 -1.21-.73 16.07 16.07 0 0 0 -1.57-.5c-.6-.16-1.18-.34-1.76-.54a6.23 6.23 0 0 1 -1.55-.77 3.61 3.61 0 0 1 -1.11-1.19 3.4 3.4 0 0 1 -.42-1.76 3.44 3.44 0 0 1 .66-2.11 4.38 4.38 0 0 1 1.77-1.38 6.13 6.13 0 0 1 2.46-.48 8.11 8.11 0 0 1 1.58.17 6.1 6.1 0 0 1 1.6.6 4.43 4.43 0 0 1 1.38 1.14 1.12 1.12 0 0 1 .27.68.87.87 0 0 1 -.35.73 1.05 1.05 0 0 1 -.66.2.85.85 0 0 1 -.61-.26 3.89 3.89 0 0 0 -1.44-1.06 4.61 4.61 0 0 0 -1.88-.37 3.84 3.84 0 0 0 -1.24.21 2.39 2.39 0 0 0 -1 .63 1.66 1.66 0 0 0 -.42 1.21 1.68 1.68 0 0 0 .49 1.19 3.26 3.26 0 0 0 1.24.75c.52.18 1.1.37 1.73.55a16.87 16.87 0 0 1 1.66.5 5.76 5.76 0 0 1 1.44.74 3.35 3.35 0 0 1 1 1.18 3.8 3.8 0 0 1 .38 1.79 3.41 3.41 0 0 1 -.71 2.15 4.31 4.31 0 0 1 -1.85 1.37 6.29 6.29 0 0 1 -2.47.48 8.2 8.2 0 0 1 -2.94-.56 5.67 5.67 0 0 1 -2.52-1.93z"/><path d="m415 103.94a1.55 1.55 0 0 1 -1-.27 1 1 0 0 1 -.32-.83v-.38a1 1 0 0 1 .35-.84 1.59 1.59 0 0 1 1-.27 1.5 1.5 0 0 1 1 .27 1 1 0 0 1 .32.84v.38a1 1 0 0 1 -.33.83 1.58 1.58 0 0 1 -1.02.27zm1.11 14.88a1.1 1.1 0 0 1 -.31.78 1 1 0 0 1 -.77.33 1.09 1.09 0 0 1 -1.11-1.11v-12a1.09 1.09 0 0 1 1.11-1.11 1 1 0 0 1 .77.33 1.1 1.1 0 0 1 .31.78z"/><path d="m433.26 112.91a7.5 7.5 0 0 1 -.93 3.75 6.94 6.94 0 0 1 -2.51 2.59 7 7 0 0 1 -9.64-2.59 8 8 0 0 1 0-7.51 6.91 6.91 0 0 1 2.53-2.59 7.19 7.19 0 0 1 7.11 0 7 7 0 0 1 2.51 2.59 7.52 7.52 0 0 1 .93 3.76zm-2.19 0a5.69 5.69 0 0 0 -.63-2.74 4.87 4.87 0 0 0 -1.73-1.87 4.47 4.47 0 0 0 -2.44-.68 4.52 4.52 0 0 0 -2.47.68 5 5 0 0 0 -1.74 1.87 6.06 6.06 0 0 0 0 5.46 4.93 4.93 0 0 0 1.74 1.88 4.53 4.53 0 0 0 2.47.69 4.47 4.47 0 0 0 2.44-.69 4.83 4.83 0 0 0 1.73-1.88 5.72 5.72 0 0 0 .63-2.72z"/><path d="m443.44 105.62a4.91 4.91 0 0 1 2.89.75 4.15 4.15 0 0 1 1.5 2 8.5 8.5 0 0 1 .44 2.86v7.56a1.06 1.06 0 0 1 -.31.78 1.08 1.08 0 0 1 -1.55 0 1.09 1.09 0 0 1 -.3-.78v-7.51a5.26 5.26 0 0 0 -.31-1.86 2.7 2.7 0 0 0 -1-1.34 3.38 3.38 0 0 0 -1.94-.49 4.4 4.4 0 0 0 -2.08.49 4.17 4.17 0 0 0 -1.51 1.34 3.24 3.24 0 0 0 -.57 1.86v7.51a1.06 1.06 0 0 1 -.31.78 1.06 1.06 0 0 1 -1.54 0 1.06 1.06 0 0 1 -.31-.78v-11.71a1.07 1.07 0 0 1 .31-.8 1 1 0 0 1 .77-.31 1 1 0 0 1 .78.31 1.1 1.1 0 0 1 .3.8v1.92l-.54.6a3.9 3.9 0 0 1 .62-1.42 5.67 5.67 0 0 1 1.22-1.28 6.11 6.11 0 0 1 1.62-.91 5.28 5.28 0 0 1 1.82-.37z"/></g></svg>